#!OML:ASF H:\charlestonDancing\Project 1\Capture day 1\Session 1\femaleDancer.ASF
:FULLY-SPECIFIED
:DEGREES
269
root -9.92448 17.4697 2.30042 -73.4629 -92.9306 78.3995
lowerback 27.1983 1.28213 11.0436
upperback 8.68647 3.8074 2.14195
thorax -4.59373 1.57193 -5.03423
lowerneck 2.51379 7.83665 10.6558
upperneck -5.42506 10.3263 -15.4473
head -0.590115 5.33239 -6.41428
rclavicle 2.62396e-014 -3.33958e-014
rhumerus 5.60495 4.64911 -70.6828
rradius 82.8441
rwrist 36.1282
rhand -36.8938 -42.5026
rfingers 7.12502
rthumb -9.9722 -72.2464
lclavicle 2.62396e-014 -3.33958e-014
lhumerus -64.0928 17.7334 60.5332
lradius 16.4613
lwrist -41.3982
lhand -21.8864 11.9467
lfingers 7.12502
lthumb 4.51848 41.8785
rfemur -25.0523 -1.11052 28.3052
rtibia 43.2514
rfoot -16.9384 -7.53793
rtoes -16.9781
lfemur -50.1797 -5.11876 -17.2284
ltibia 91.925
lfoot -9.45414 0.419942
ltoes -23.4438
270
root -9.9494 17.5814 2.32078 -75.7475 -92.5596 80.6362
lowerback 27.6261 1.64773 11.2223
upperback 9.02095 4.29754 2.03024
thorax -4.31089 1.827 -5.40256
lowerneck 1.82453 7.71464 10.3603
upperneck -5.3646 10.1183 -14.8721
head -0.535842 5.19549 -6.1638
rclavicle -1.59028e-015 -2.8625e-014
rhumerus 9.46022 2.01175 -69.4987
rradius 82.0246
rwrist 36.5695
rhand -36.5288 -42.4707
rfingers 7.12502
rthumb -9.62004 -72.231
lclavicle -1.59028e-015 -2.8625e-014
lhumerus -66.2058 17.1071 58.0382
lradius 14.964
lwrist -43.9226
lhand -18.8412 10.0648
lfingers 7.12502
lthumb 7.45841 39.9133
rfemur -24.2761 -0.491943 27.8944
rtibia 42.0202
rfoot -16.1589 -8.18377
rtoes -11.8959
lfemur -52.2551 -7.0961 -16.7647
ltibia 88.8485
lfoot -10.3793 0.0917677
ltoes -23.6113
271
root -9.97675 17.6996 2.34276 -79.9222 -91.8336 84.7301
lowerback 28.1574 1.91628 11.1034
upperback 9.34726 4.59644 1.82982
thorax -4.1348 1.98372 -5.65715
lowerneck 1.76327 7.49697 10.4945
upperneck -5.84041 9.7788 -14.9102
head -0.697241 5.02722 -6.21947
rclavicle -1.90833e-014 4.13472e-014
rhumerus 13.3793 -0.383205 -68.483
rradius 80.2806
rwrist 36.9423
rhand -36.2102 -42.4529
rfingers 7.12502
rthumb -9.3126 -72.2272
lclavicle -1.90833e-014 4.13472e-014
lhumerus -67.8496 15.3302 57.6625
lradius 14.3374
lwrist -45.0986
lhand -15.3555 7.88256
lfingers 7.12502
lthumb 10.8219 37.5837
rfemur -23.4893 -0.242342 27.1366
rtibia 40.7695
rfoot -15.0217 -8.99247
rtoes -10.3346
lfemur -53.6721 -8.86162 -16.7891
ltibia 84.5824
lfoot -11.6216 0.826056
ltoes -24.6798
272
root -10.0031 17.8187 2.36622 -101.33 -90.7137 106.164
lowerback 28.6728 2.10653 10.5676
upperback 9.6125 4.69321 1.5624
thorax -4.092 2.03301 -5.7007
lowerneck 1.57817 7.38368 10.4236
upperneck -6.23212 9.56816 -14.9904
head -0.805332 4.92226 -6.24262
rclavicle 2.62396e-014 4.77083e-015
rhumerus 17.3102 -2.46387 -67.597
rradius 77.7776
rwrist 37.2231
rhand -35.8975 -42.7282
rfingers 7.12502
rthumb -9.01089 -72.5158
lclavicle 2.62396e-014 4.77083e-015
lhumerus -70.3436 16.0802 52.7513
lradius 13.0139
lwrist -51.9932
lhand -13.5453 4.99924
lfingers 7.12502
lthumb 12.5675 34.6012
rfemur -22.8658 -0.614163 26.0036
rtibia 39.5929
rfoot -13.5358 -9.7572
rtoes -9.62435
lfemur -54.6177 -10.4398 -17.3885
ltibia 79.2912
lfoot -12.9929 2.77412
ltoes -25.0461
273
root -10.0257 17.9293 2.38421 -172.138 -90.4236 177.016
lowerback 29.2559 2.2787 10.2763
upperback 9.82361 4.84701 1.47324
thorax -4.12138 2.09947 -5.70636
lowerneck 1.46072 7.27987 10.6382
upperneck -6.60808 9.36132 -15.6904
head -0.869352 4.8294 -6.50483
rclavicle 2.8625e-014 1.59028e-015
rhumerus 21.3214 -4.3252 -66.8257
rradius 74.6196
rwrist 37.9543
rhand -34.9804 -43.2709
rfingers 7.12502
rthumb -8.12585 -73.0947
lclavicle 2.8625e-014 1.59028e-015
lhumerus -72.854 16.2619 48.9368
lradius 12.4056
lwrist -58.2103
lhand -13.7591 3.05301
lfingers 7.12502
lthumb 12.3614 32.6676
rfemur -22.3391 -1.00442 25.527
rtibia 38.532
rfoot -12.1212 -10.6179
rtoes -8.48608
lfemur -55.1286 -11.3374 -17.5103
ltibia 73.2482
lfoot -14.3954 4.54055
ltoes -23.7383
274
root -10.0511 18.0306 2.39783 -201.697 -90.519 206.746
lowerback 29.6366 2.46854 10.1152
upperback 9.98968 5.04986 1.53678
thorax -4.09996 2.19003 -5.6196
lowerneck 1.53002 7.24799 10.801
upperneck -7.12754 9.24952 -16.3464
head -0.998836 4.79441 -6.75668
rclavicle 2.06736e-014 -3.18055e-014
rhumerus 25.3657 -5.73367 -66.1471
rradius 70.7045
rwrist 38.437
rhand -34.9823 -43.5353
rfingers 7.12502
rthumb -8.12768 -73.359
lclavicle 2.06736e-014 -3.18055e-014
lhumerus -74.9837 16.0227 46.349
lradius 12.0592
lwrist -61.5326
lhand -13.7228 1.18135
lfingers 7.12502
lthumb 12.3964 30.7938
rfemur -22.012 -1.28581 25.5216
rtibia 37.5819
rfoot -10.9913 -11.5714
rtoes -6.33209
lfemur -55.2627 -11.6522 -17.2635
ltibia 66.663
lfoot -15.3765 4.9758
ltoes -21.7336
275
root -10.08 18.1159 2.41066 -231.023 -90.7607 236.532
lowerback 29.6059 2.71921 9.64778
upperback 10.0937 5.22367 1.59782
thorax -4.00207 2.27239 -5.33337
lowerneck 1.34891 7.30109 10.9366
upperneck -7.32192 9.26016 -17.0552
head -0.973752 4.80863 -6.99674
rclavicle -4.29375e-014 -9.54166e-015
rhumerus 29.4472 -6.88695 -65.5974
rradius 66.1854
rwrist 39.5783
rhand -34.4965 -43.812
rfingers 7.12502
rthumb -7.65877 -73.6533
lclavicle -4.29375e-014 -9.54166e-015
lhumerus -76.0483 14.5231 48.301
lradius 12.0354
lwrist -59.7012
lhand -13.9738 1.60054
lfingers 7.12502
lthumb 12.1543 31.2275
rfemur -22.0347 -1.63223 25.2924
rtibia 36.7188
rfoot -10.2128 -12.3515
rtoes -4.47861
lfemur -55.2987 -11.6844 -17.243
ltibia 59.8025
lfoot -15.3656 4.48527
ltoes -20.7331
276
root -10.1151 18.1654 2.42275 -242.314 -91.1324 248.324
lowerback 29.4228 2.95971 9.12798
upperback 10.1527 5.36999 1.66334
thorax -3.89912 2.34282 -4.99754
lowerneck 1.09324 7.35928 11.1166
upperneck -7.37758 9.2874 -17.7694
head -0.890404 4.82415 -7.23878
rclavicle 4.45278e-014 -3.18055e-015
rhumerus 33.4479 -7.96324 -65.2246
rradius 61.2243
rwrist 41.1991
rhand -33.4419 -44.3818
rfingers 7.12502
rthumb -6.6408 -74.2577
lclavicle 4.45278e-014 -3.18055e-015
lhumerus -77.3094 13.426 49.341
lradius 11.9822
lwrist -58.2645
lhand -14.2229 1.60345
lfingers 7.12502
lthumb 11.9142 31.2444
rfemur -22.0161 -1.94871 24.909
rtibia 35.8359
rfoot -10.359 -12.607
rtoes -0.947012
lfemur -55.2242 -11.4422 -17.4714
ltibia 53.2064
lfoot -14.3424 3.89283
ltoes -21.7192
277
root -10.1636 18.1704 2.44034 -240.079 -91.5156 246.483
lowerback 29.1461 3.08086 8.81489
upperback 10.1638 5.42685 1.73455
thorax -3.79695 2.37457 -4.74161
lowerneck 1.06724 7.33941 11.4456
upperneck -7.44028 9.22761 -18.5502
head -0.848582 4.8039 -7.54238
rclavicle -3.18055e-014 3.81667e-014
rhumerus 37.15 -8.73153 -64.8314
rradius 55.9032
rwrist 41.7574
rhand -33.2104 -44.8908
rfingers 7.12502
rthumb -6.41732 -74.7736
lclavicle -3.18055e-014 3.81667e-014
lhumerus -78.5941 12.5376 49.8408
lradius 11.9942
lwrist -56.6439
lhand -13.5701 1.83809
lfingers 7.12502
lthumb 12.5436 31.4416
rfemur -21.7865 -2.55056 24.4721
rtibia 35.0153
rfoot -10.4723 -12.482
rtoes -3.61862
lfemur -55.0895 -11.0077 -18.0108
ltibia 47.3552
lfoot -11.9583 2.98027
ltoes -19.8076
278
root -10.2163 18.1538 2.4636 -230.657 -91.6859 237.344
lowerback 28.8105 3.07144 8.83757
upperback 10.1124 5.41963 1.9081
thorax -3.7178 2.37664 -4.54151
lowerneck 1.1996 7.34161 11.4214
upperneck -7.58208 9.21299 -18.7795
head -0.900833 4.81123 -7.62211
rclavicle 9.54166e-015 -1.59028e-014
rhumerus 40.4459 -9.1062 -64.3532
rradius 50.5056
rwrist 41.1931
rhand -33.5448 -44.5178
rfingers 7.12502
rthumb -6.74019 -74.3905
lclavicle 9.54166e-015 -1.59028e-014
lhumerus -79.7062 11.4603 51.3631
lradius 12.1725
lwrist -53.924
lhand -12.6329 1.51307
lfingers 7.12502
lthumb 13.447 31.059
rfemur -21.4254 -2.66483 23.9691
rtibia 34.4167
rfoot -11.7328 -11.4803
rtoes -3.86362
lfemur -54.9729 -10.2931 -18.6543
ltibia 42.8084
lfoot -9.25872 2.66449
ltoes -19.3992
